<svg id="visual" viewBox="0 0 960 540" width="960" height="540" xmlns="http://www.w3.org/2000/svg" xmlns:xlink="http://www.w3.org/1999/xlink" version="1.1"><rect x="0" y="0" width="960" height="540" fill="#001220"></rect><path d="M0 334L14.5 330.2C29 326.3 58 318.7 87.2 318.8C116.3 319 145.7 327 174.8 329C204 331 233 327 262 325.7C291 324.3 320 325.7 349 327C378 328.3 407 329.7 436.2 328.2C465.3 326.7 494.7 322.3 523.8 320.7C553 319 582 320 611 326C640 332 669 343 698 342C727 341 756 328 785.2 321.5C814.3 315 843.7 315 872.8 314.2C902 313.3 931 311.7 945.5 310.8L960 310L960 541L945.5 541C931 541 902 541 872.8 541C843.7 541 814.3 541 785.2 541C756 541 727 541 698 541C669 541 640 541 611 541C582 541 553 541 523.8 541C494.7 541 465.3 541 436.2 541C407 541 378 541 349 541C320 541 291 541 262 541C233 541 204 541 174.8 541C145.7 541 116.3 541 87.2 541C58 541 29 541 14.5 541L0 541Z" fill="#c0fdff"></path><path d="M0 372L14.5 373.8C29 375.7 58 379.3 87.2 375.3C116.3 371.3 145.7 359.7 174.8 359.7C204 359.7 233 371.3 262 373.7C291 376 320 369 349 362.8C378 356.7 407 351.3 436.2 351C465.3 350.7 494.7 355.3 523.8 356.3C553 357.3 582 354.7 611 353.3C640 352 669 352 698 357.7C727 363.3 756 374.7 785.2 377.3C814.3 380 843.7 374 872.8 373.7C902 373.3 931 378.7 945.5 381.3L960 384L960 541L945.5 541C931 541 902 541 872.8 541C843.7 541 814.3 541 785.2 541C756 541 727 541 698 541C669 541 640 541 611 541C582 541 553 541 523.8 541C494.7 541 465.3 541 436.2 541C407 541 378 541 349 541C320 541 291 541 262 541C233 541 204 541 174.8 541C145.7 541 116.3 541 87.2 541C58 541 29 541 14.5 541L0 541Z" fill="#a1e9ff"></path><path d="M0 386L14.5 391.5C29 397 58 408 87.2 408.2C116.3 408.3 145.7 397.7 174.8 392.8C204 388 233 389 262 391.2C291 393.3 320 396.7 349 399.2C378 401.7 407 403.3 436.2 404C465.3 404.7 494.7 404.3 523.8 400.7C553 397 582 390 611 392.3C640 394.7 669 406.3 698 409.2C727 412 756 406 785.2 400C814.3 394 843.7 388 872.8 387.3C902 386.7 931 391.3 945.5 393.7L960 396L960 541L945.5 541C931 541 902 541 872.8 541C843.7 541 814.3 541 785.2 541C756 541 727 541 698 541C669 541 640 541 611 541C582 541 553 541 523.8 541C494.7 541 465.3 541 436.2 541C407 541 378 541 349 541C320 541 291 541 262 541C233 541 204 541 174.8 541C145.7 541 116.3 541 87.2 541C58 541 29 541 14.5 541L0 541Z" fill="#9ecfff"></path><path d="M0 434L14.5 436.7C29 439.3 58 444.7 87.2 445.8C116.3 447 145.7 444 174.8 441.8C204 439.7 233 438.3 262 434.7C291 431 320 425 349 426.8C378 428.7 407 438.3 436.2 439.3C465.3 440.3 494.7 432.7 523.8 433.8C553 435 582 445 611 446.2C640 447.3 669 439.7 698 434.2C727 428.7 756 425.3 785.2 423.3C814.3 421.3 843.7 420.7 872.8 423.8C902 427 931 434 945.5 437.5L960 441L960 541L945.5 541C931 541 902 541 872.8 541C843.7 541 814.3 541 785.2 541C756 541 727 541 698 541C669 541 640 541 611 541C582 541 553 541 523.8 541C494.7 541 465.3 541 436.2 541C407 541 378 541 349 541C320 541 291 541 262 541C233 541 204 541 174.8 541C145.7 541 116.3 541 87.2 541C58 541 29 541 14.5 541L0 541Z" fill="#b7b1fb"></path><path d="M0 485L14.5 483.2C29 481.3 58 477.7 87.2 476.8C116.3 476 145.7 478 174.8 476.5C204 475 233 470 262 467.7C291 465.3 320 465.7 349 468C378 470.3 407 474.7 436.2 473.7C465.3 472.7 494.7 466.3 523.8 463.7C553 461 582 462 611 464.8C640 467.7 669 472.3 698 475.2C727 478 756 479 785.2 479.3C814.3 479.7 843.7 479.3 872.8 476.8C902 474.3 931 469.7 945.5 467.3L960 465L960 541L945.5 541C931 541 902 541 872.8 541C843.7 541 814.3 541 785.2 541C756 541 727 541 698 541C669 541 640 541 611 541C582 541 553 541 523.8 541C494.7 541 465.3 541 436.2 541C407 541 378 541 349 541C320 541 291 541 262 541C233 541 204 541 174.8 541C145.7 541 116.3 541 87.2 541C58 541 29 541 14.5 541L0 541Z" fill="#e488d7"></path><path d="M0 489L14.5 491.8C29 494.7 58 500.3 87.2 503.3C116.3 506.3 145.7 506.7 174.8 507.8C204 509 233 511 262 512.2C291 513.3 320 513.7 349 509.3C378 505 407 496 436.2 491.3C465.3 486.7 494.7 486.3 523.8 489.5C553 492.7 582 499.3 611 501.2C640 503 669 500 698 497.8C727 495.7 756 494.3 785.2 497.3C814.3 500.3 843.7 507.7 872.8 509.3C902 511 931 507 945.5 505L960 503L960 541L945.5 541C931 541 902 541 872.8 541C843.7 541 814.3 541 785.2 541C756 541 727 541 698 541C669 541 640 541 611 541C582 541 553 541 523.8 541C494.7 541 465.3 541 436.2 541C407 541 378 541 349 541C320 541 291 541 262 541C233 541 204 541 174.8 541C145.7 541 116.3 541 87.2 541C58 541 29 541 14.5 541L0 541Z" fill="#ff5d8f"></path></svg>