<svg id="visual" viewBox="0 0 675 900" width="675" height="900" xmlns="http://www.w3.org/2000/svg" xmlns:xlink="http://www.w3.org/1999/xlink" version="1.1"><rect x="0" y="0" width="675" height="900" fill="#001220"></rect><path d="M0 589L10.2 590.5C20.3 592 40.7 595 61.2 587.7C81.7 580.3 102.3 562.7 122.8 555.5C143.3 548.3 163.7 551.7 184 551.3C204.3 551 224.7 547 245.2 547.5C265.7 548 286.3 553 306.8 553.7C327.3 554.3 347.7 550.7 368.2 547.7C388.7 544.7 409.3 542.3 429.8 549.2C450.3 556 470.7 572 491 570.8C511.3 569.7 531.7 551.3 552.2 542.5C572.7 533.7 593.3 534.3 613.8 543C634.3 551.7 654.7 568.3 664.8 576.7L675 585L675 901L664.8 901C654.7 901 634.3 901 613.8 901C593.3 901 572.7 901 552.2 901C531.7 901 511.3 901 491 901C470.7 901 450.3 901 429.8 901C409.3 901 388.7 901 368.2 901C347.7 901 327.3 901 306.8 901C286.3 901 265.7 901 245.2 901C224.7 901 204.3 901 184 901C163.7 901 143.3 901 122.8 901C102.3 901 81.7 901 61.2 901C40.7 901 20.3 901 10.2 901L0 901Z" fill="#c0fdff"></path><path d="M0 599L10.2 608.7C20.3 618.3 40.7 637.7 61.2 643C81.7 648.3 102.3 639.7 122.8 636C143.3 632.3 163.7 633.7 184 634.5C204.3 635.3 224.7 635.7 245.2 633.3C265.7 631 286.3 626 306.8 625.3C327.3 624.7 347.7 628.3 368.2 621.8C388.7 615.3 409.3 598.7 429.8 590C450.3 581.3 470.7 580.7 491 590.5C511.3 600.3 531.7 620.7 552.2 630.5C572.7 640.3 593.3 639.7 613.8 637.3C634.3 635 654.7 631 664.8 629L675 627L675 901L664.8 901C654.7 901 634.3 901 613.8 901C593.3 901 572.7 901 552.2 901C531.7 901 511.3 901 491 901C470.7 901 450.3 901 429.8 901C409.3 901 388.7 901 368.2 901C347.7 901 327.3 901 306.8 901C286.3 901 265.7 901 245.2 901C224.7 901 204.3 901 184 901C163.7 901 143.3 901 122.8 901C102.3 901 81.7 901 61.2 901C40.7 901 20.3 901 10.2 901L0 901Z" fill="#a1e9ff"></path><path d="M0 660L10.2 656C20.3 652 40.7 644 61.2 650.3C81.7 656.7 102.3 677.3 122.8 683.3C143.3 689.3 163.7 680.7 184 677C204.3 673.3 224.7 674.7 245.2 680.5C265.7 686.3 286.3 696.7 306.8 700C327.3 703.3 347.7 699.7 368.2 696C388.7 692.3 409.3 688.7 429.8 687.3C450.3 686 470.7 687 491 683.8C511.3 680.7 531.7 673.3 552.2 668.5C572.7 663.7 593.3 661.3 613.8 656.5C634.3 651.7 654.7 644.3 664.8 640.7L675 637L675 901L664.8 901C654.7 901 634.3 901 613.8 901C593.3 901 572.7 901 552.2 901C531.7 901 511.3 901 491 901C470.7 901 450.3 901 429.8 901C409.3 901 388.7 901 368.2 901C347.7 901 327.3 901 306.8 901C286.3 901 265.7 901 245.2 901C224.7 901 204.3 901 184 901C163.7 901 143.3 901 122.8 901C102.3 901 81.7 901 61.2 901C40.7 901 20.3 901 10.2 901L0 901Z" fill="#9ecfff"></path><path d="M0 738L10.2 740.5C20.3 743 40.7 748 61.2 747.2C81.7 746.3 102.3 739.7 122.8 731C143.3 722.3 163.7 711.7 184 710.8C204.3 710 224.7 719 245.2 728.3C265.7 737.7 286.3 747.3 306.8 744.5C327.3 741.7 347.7 726.3 368.2 724.2C388.7 722 409.3 733 429.8 731.8C450.3 730.7 470.7 717.3 491 711.5C511.3 705.7 531.7 707.3 552.2 712.5C572.7 717.7 593.3 726.3 613.8 727.2C634.3 728 654.7 721 664.8 717.5L675 714L675 901L664.8 901C654.7 901 634.3 901 613.8 901C593.3 901 572.7 901 552.2 901C531.7 901 511.3 901 491 901C470.7 901 450.3 901 429.8 901C409.3 901 388.7 901 368.2 901C347.7 901 327.3 901 306.8 901C286.3 901 265.7 901 245.2 901C224.7 901 204.3 901 184 901C163.7 901 143.3 901 122.8 901C102.3 901 81.7 901 61.2 901C40.7 901 20.3 901 10.2 901L0 901Z" fill="#b7b1fb"></path><path d="M0 762L10.2 761.3C20.3 760.7 40.7 759.3 61.2 766.7C81.7 774 102.3 790 122.8 793C143.3 796 163.7 786 184 776.8C204.3 767.7 224.7 759.3 245.2 756.3C265.7 753.3 286.3 755.7 306.8 760.2C327.3 764.7 347.7 771.3 368.2 778C388.7 784.7 409.3 791.3 429.8 787.7C450.3 784 470.7 770 491 764.5C511.3 759 531.7 762 552.2 761.7C572.7 761.3 593.3 757.7 613.8 757.5C634.3 757.3 654.7 760.7 664.8 762.3L675 764L675 901L664.8 901C654.7 901 634.3 901 613.8 901C593.3 901 572.7 901 552.2 901C531.7 901 511.3 901 491 901C470.7 901 450.3 901 429.8 901C409.3 901 388.7 901 368.2 901C347.7 901 327.3 901 306.8 901C286.3 901 265.7 901 245.2 901C224.7 901 204.3 901 184 901C163.7 901 143.3 901 122.8 901C102.3 901 81.7 901 61.2 901C40.7 901 20.3 901 10.2 901L0 901Z" fill="#e488d7"></path><path d="M0 838L10.2 839.8C20.3 841.7 40.7 845.3 61.2 840.8C81.7 836.3 102.3 823.7 122.8 825.5C143.3 827.3 163.7 843.7 184 844.5C204.3 845.3 224.7 830.7 245.2 825C265.7 819.3 286.3 822.7 306.8 829.2C327.3 835.7 347.7 845.3 368.2 845C388.7 844.7 409.3 834.3 429.8 830.5C450.3 826.7 470.7 829.3 491 834.2C511.3 839 531.7 846 552.2 848C572.7 850 593.3 847 613.8 846.8C634.3 846.7 654.7 849.3 664.8 850.7L675 852L675 901L664.8 901C654.7 901 634.3 901 613.8 901C593.3 901 572.7 901 552.2 901C531.7 901 511.3 901 491 901C470.7 901 450.3 901 429.8 901C409.3 901 388.7 901 368.2 901C347.7 901 327.3 901 306.8 901C286.3 901 265.7 901 245.2 901C224.7 901 204.3 901 184 901C163.7 901 143.3 901 122.8 901C102.3 901 81.7 901 61.2 901C40.7 901 20.3 901 10.2 901L0 901Z" fill="#ff5d8f"></path></svg>