<svg id="visual" viewBox="0 0 900 600" width="900" height="600" xmlns="http://www.w3.org/2000/svg" xmlns:xlink="http://www.w3.org/1999/xlink" version="1.1"><rect x="0" y="0" width="900" height="600" fill="#001220"></rect><path d="M0 392L13.7 393C27.3 394 54.7 396 82 391.2C109.3 386.3 136.7 374.7 163.8 369.8C191 365 218 367 245.2 366.8C272.3 366.7 299.7 364.3 327 364.8C354.3 365.3 381.7 368.7 409 369C436.3 369.3 463.7 366.7 491 364.7C518.3 362.7 545.7 361.3 573 366C600.3 370.7 627.7 381.3 654.8 380.5C682 379.7 709 367.3 736.2 361.3C763.3 355.3 790.7 355.7 818 361.5C845.3 367.3 872.7 378.7 886.3 384.3L900 390L900 601L886.3 601C872.7 601 845.3 601 818 601C790.7 601 763.3 601 736.2 601C709 601 682 601 654.8 601C627.7 601 600.3 601 573 601C545.7 601 518.3 601 491 601C463.7 601 436.3 601 409 601C381.7 601 354.3 601 327 601C299.7 601 272.3 601 245.2 601C218 601 191 601 163.8 601C136.7 601 109.3 601 82 601C54.7 601 27.3 601 13.7 601L0 601Z" fill="#c0fdff"></path><path d="M0 399L13.7 405.5C27.3 412 54.7 425 82 428.5C109.3 432 136.7 426 163.8 423.5C191 421 218 422 245.2 422.5C272.3 423 299.7 423 327 421.3C354.3 419.7 381.7 416.3 409 416C436.3 415.7 463.7 418.3 491 414.2C518.3 410 545.7 399 573 393.2C600.3 387.3 627.7 386.7 654.8 393.2C682 399.7 709 413.3 736.2 419.8C763.3 426.3 790.7 425.7 818 424.2C845.3 422.7 872.7 420.3 886.3 419.2L900 418L900 601L886.3 601C872.7 601 845.3 601 818 601C790.7 601 763.3 601 736.2 601C709 601 682 601 654.8 601C627.7 601 600.3 601 573 601C545.7 601 518.3 601 491 601C463.7 601 436.3 601 409 601C381.7 601 354.3 601 327 601C299.7 601 272.3 601 245.2 601C218 601 191 601 163.8 601C136.7 601 109.3 601 82 601C54.7 601 27.3 601 13.7 601L0 601Z" fill="#a1e9ff"></path><path d="M0 439L13.7 436.3C27.3 433.7 54.7 428.3 82 432.7C109.3 437 136.7 451 163.8 455C191 459 218 453 245.2 450.5C272.3 448 299.7 449 327 453C354.3 457 381.7 464 409 466.2C436.3 468.3 463.7 465.7 491 463.2C518.3 460.7 545.7 458.3 573 457.5C600.3 456.7 627.7 457.3 654.8 455.3C682 453.3 709 448.7 736.2 445.5C763.3 442.3 790.7 440.7 818 437.3C845.3 434 872.7 429 886.3 426.5L900 424L900 601L886.3 601C872.7 601 845.3 601 818 601C790.7 601 763.3 601 736.2 601C709 601 682 601 654.8 601C627.7 601 600.3 601 573 601C545.7 601 518.3 601 491 601C463.7 601 436.3 601 409 601C381.7 601 354.3 601 327 601C299.7 601 272.3 601 245.2 601C218 601 191 601 163.8 601C136.7 601 109.3 601 82 601C54.7 601 27.3 601 13.7 601L0 601Z" fill="#9ecfff"></path><path d="M0 492L13.7 493.7C27.3 495.3 54.7 498.7 82 498C109.3 497.3 136.7 492.7 163.8 486.8C191 481 218 474 245.2 473.5C272.3 473 299.7 479 327 485.2C354.3 491.3 381.7 497.7 409 495.7C436.3 493.7 463.7 483.3 491 482C518.3 480.7 545.7 488.3 573 487.7C600.3 487 627.7 478 654.8 474.2C682 470.3 709 471.7 736.2 475.2C763.3 478.7 790.7 484.3 818 484.8C845.3 485.3 872.7 480.7 886.3 478.3L900 476L900 601L886.3 601C872.7 601 845.3 601 818 601C790.7 601 763.3 601 736.2 601C709 601 682 601 654.8 601C627.7 601 600.3 601 573 601C545.7 601 518.3 601 491 601C463.7 601 436.3 601 409 601C381.7 601 354.3 601 327 601C299.7 601 272.3 601 245.2 601C218 601 191 601 163.8 601C136.7 601 109.3 601 82 601C54.7 601 27.3 601 13.7 601L0 601Z" fill="#b7b1fb"></path><path d="M0 508L13.7 507.5C27.3 507 54.7 506 82 510.8C109.3 515.7 136.7 526.3 163.8 528.3C191 530.3 218 523.7 245.2 517.5C272.3 511.3 299.7 505.7 327 503.7C354.3 501.7 381.7 503.3 409 506.3C436.3 509.3 463.7 513.7 491 518.2C518.3 522.7 545.7 527.3 573 525C600.3 522.7 627.7 513.3 654.8 509.5C682 505.7 709 507.3 736.2 507C763.3 506.7 790.7 504.3 818 504.3C845.3 504.3 872.7 506.7 886.3 507.8L900 509L900 601L886.3 601C872.7 601 845.3 601 818 601C790.7 601 763.3 601 736.2 601C709 601 682 601 654.8 601C627.7 601 600.3 601 573 601C545.7 601 518.3 601 491 601C463.7 601 436.3 601 409 601C381.7 601 354.3 601 327 601C299.7 601 272.3 601 245.2 601C218 601 191 601 163.8 601C136.7 601 109.3 601 82 601C54.7 601 27.3 601 13.7 601L0 601Z" fill="#e488d7"></path><path d="M0 558L13.7 559.3C27.3 560.7 54.7 563.3 82 560.3C109.3 557.3 136.7 548.7 163.8 549.8C191 551 218 562 245.2 562.7C272.3 563.3 299.7 553.7 327 549.8C354.3 546 381.7 548 409 552.3C436.3 556.7 463.7 563.3 491 563.2C518.3 563 545.7 556 573 553.3C600.3 550.7 627.7 552.3 654.8 555.5C682 558.7 709 563.3 736.2 564.7C763.3 566 790.7 564 818 564C845.3 564 872.7 566 886.3 567L900 568L900 601L886.3 601C872.7 601 845.3 601 818 601C790.7 601 763.3 601 736.2 601C709 601 682 601 654.8 601C627.7 601 600.3 601 573 601C545.7 601 518.3 601 491 601C463.7 601 436.3 601 409 601C381.7 601 354.3 601 327 601C299.7 601 272.3 601 245.2 601C218 601 191 601 163.8 601C136.7 601 109.3 601 82 601C54.7 601 27.3 601 13.7 601L0 601Z" fill="#ff5d8f"></path></svg>